# xmcd CD database file
#
# Track frame offsets:
#	150
#	25668
#	48651
#	69723
#	103303
#	125632
#	148875
#	172312
#	191557
#	221201
#
# Disc length: 3209 seconds
#
# Revision: 1
# Processed by: cddbd v1.5.2PL0 Copyright (c) Steve Scherf et al.
# Submitted via: CDex 1.51
#
DISCID=a90c870a
DTITLE=Meshuggah - Nothing
DYEAR=2002
DGENRE=Metal
TTITLE0=Stengah
TTITLE1=Rational Gaze
TTITLE2=Perpetual Black Second
TTITLE3=Closed Eyes Visual
TTITLE4=Glints Collide
TTITLE5=Organic Shadows
TTITLE6=Straws Pulled at Random
TTITLE7=Spasm
TTITLE8=Nebulous
TTITLE9=Obsidian
EXTD=zuuuuuu YEAR: 2002
EXTT0=
EXTT1=
EXTT2=
EXTT3=
EXTT4=
EXTT5=
EXTT6=
EXTT7=
EXTT8=
EXTT9=
PLAYORDER=
